<?xml version="1.0" encoding="UTF-8"?>
<svg id="Layer_1" xmlns="http://www.w3.org/2000/svg" xmlns:xlink="http://www.w3.org/1999/xlink" viewBox="0 0 657.7 657.7">
  <defs>
    <style>
      .cls-1 {
        fill: #fff;
      }

      .cls-2 {
        fill: url(#linear-gradient);
      }
    </style>
    <linearGradient id="linear-gradient" x1="258.33" y1="327.86" x2="393.46" y2="327.86" gradientTransform="translate(651.79) rotate(-180) scale(1 -1)" gradientUnits="userSpaceOnUse">
      <stop offset="0" stop-color="#fff"/>
      <stop offset="0" stop-color="#d1d3d4"/>
    </linearGradient>
  </defs>
  <path class="cls-1" d="M657.7,657.7H0V0h657.7v657.7Z"/>
  <path class="cls-1" d="M368.21,57.27c.28-4.7-1.05-12.99-3.25-21.12-1.02-3.75-2.45-7.49-4.31-10.89-3.74-6.83-9.57-11.29-16.98-13.85-9.62-3.32-19.45-6.09-29.61-5.82-7.59.21-15.21,1.77-22.68,3.35-6.55,1.39-12.89,4.05-17.69,8.82-3.76,3.74-6.64,8.37-9.78,12.7-4.69,6.47-5.36,13.56-3.09,21.11.7,2.34,1,4.8,1.44,7.21.62,3.4.58,7.08,1.9,10.17,3.09,7.21,2.64,14.2.19,21.33-1.57,4.58-.81,8.93.82,13.35,2.65,7.18,5.11,14.43,7.5,21.69,1.44,4.38,3.89,7.79,8.09,9.84,3.11,1.52,6.28,2.96,9.27,4.68,7.95,4.56,8.5,8.26,3.93,16.28-5.04,8.84-9.89,17.86-13.97,27.18-5.85,13.35-11.07,26.98-16.27,40.59-3.33,8.72-5.39,17.75-5.4,27.21,0,8.42.33,16.73,2.18,25.01,2.61,11.65,5.83,22.95,12.94,32.84,3,4.17,4.92,8.96,5.38,14.17.42,4.7.77,9.41,1.1,14.12.72,10.26,1.35,20.53,2.14,30.78.4,5.15.32,10.5,3.02,15.12,2.82,4.82,4,9.9,3.99,15.4-.04,12.32-.04,24.65.02,36.97.02,3.55.38,7.1.45,10.65.12,6.64.46,13.3.07,19.91-.27,4.5.26,8.62,1.84,12.8,1.05,2.78,1.67,5.8,1.96,8.76,1.2,12.06,2.15,24.15,3.28,36.23.49,5.28.9,10.48-.76,15.71-1.43,4.5-2.46,9.15-3.41,13.79-1.15,5.63-1.92,11.33-3.02,16.97-1.88,9.59-2.58,19.16.45,28.65,1.64,5.12,3.29,10.24,5.18,15.27,3.24,8.61,6.58,17.2,10.07,25.71,1.99,4.86,5.33,8.45,10.83,9.45,6.75,1.22,13.42.84,20.07-.71,5.35-1.25,8.39-4.92,10.28-9.7,1.04-2.61,1.71-5.39,2.38-8.13,1.81-7.35,3.28-14.8,5.36-22.07,2.92-10.18,4.36-20.5,3.92-31.06-.38-9.11-.9-18.21-1.58-27.3-.43-5.84-1.06-11.66-6.03-15.88-4.07-3.46-5.22-8.03-4.93-13.28.42-7.46.67-14.95.63-22.42-.03-7.99.69-15.82,2.91-23.53.64-2.2.55-4.66.51-7-.12-6.93-1.04-13.91-.46-20.77,1.21-14.34,3.05-28.63,4.93-42.9.65-4.91,1.23-10.22,3.52-14.45,4.23-7.8,6.92-16.04,9.3-24.44,2.49-8.79,5.03-17.53,9.9-25.37,5.78-9.28,6.88-19.42,5.65-30.02-.63-5.42-1.81-10.89,1.46-15.97,1.18-1.84,2.42-3.67,3.34-5.64,3.32-7.1,7.15-14.14,6.05-22.37-.85-6.39-2.25-12.7-3.18-19.08-1.79-12.27-3.42-24.56-5.14-36.83-.91-6.49-1.81-12.98-2.85-19.44-1.16-7.29-2.4-14.56-3.73-21.82-1.18-6.43-1.77-13-5.31-18.81-1.93-3.17-3.6-6.53-5.11-9.93-1.96-4.39-4.21-8.77-5.33-13.4-1.92-7.89-.05-15.86,1.43-23.6,2.69-14.05,3.68-28.2,4.16-46.22Z"/>
  <path class="cls-2" d="M286.83,36.15c1.02-3.75,2.45-7.49,4.31-10.89,3.74-6.83,9.57-11.29,16.98-13.85,9.62-3.32,19.45-6.09,29.61-5.82,7.59.21,15.21,1.77,22.68,3.35,6.55,1.39,12.89,4.05,17.69,8.82,3.76,3.74,6.64,8.37,9.78,12.7,4.69,6.47,5.36,13.56,3.09,21.11-.7,2.34-1,4.8-1.44,7.21-.62,3.4-.58,7.08-1.9,10.17-3.09,7.21-2.64,14.2-.19,21.33,1.57,4.58.81,8.93-.82,13.35-2.65,7.18-5.11,14.43-7.5,21.69-1.44,4.38-3.89,7.79-8.09,9.84-3.11,1.52-6.28,2.96-9.27,4.68-7.95,4.56-8.5,8.26-3.93,16.28,5.04,8.84,9.89,17.86,13.97,27.18,5.85,13.35,11.07,26.98,16.27,40.59,3.33,8.72,5.39,17.75,5.4,27.21,0,8.42-.33,16.73-2.18,25.01-2.61,11.65-5.83,22.95-12.94,32.84-3,4.17-4.92,8.96-5.38,14.17-.42,4.7-.77,9.41-1.1,14.12-.72,10.26-1.35,20.53-2.14,30.78-.4,5.15-.32,10.5-3.02,15.12-2.82,4.82-4,9.9-3.99,15.4.04,12.32.04,24.65-.02,36.97-.02,3.55-.38,7.1-.45,10.65-.12,6.64-.46,13.3-.07,19.91.27,4.5-.26,8.62-1.84,12.8-1.05,2.78-1.67,5.8-1.96,8.76-1.2,12.06-2.15,24.15-3.28,36.23-.49,5.28-.9,10.48.76,15.71,1.43,4.5,2.46,9.15,3.41,13.79,1.15,5.63,1.92,11.33,3.02,16.97,1.88,9.59,2.58,19.16-.45,28.65-1.64,5.12-3.29,10.24-5.18,15.27-3.24,8.61-6.58,17.2-10.07,25.71-1.99,4.86-5.33,8.45-10.83,9.45-6.75,1.22-13.42.84-20.07-.71-5.35-1.25-8.39-4.92-10.28-9.7-1.04-2.61-1.71-5.39-2.38-8.13-1.81-7.35-3.28-14.8-5.36-22.07-2.92-10.18-4.36-20.5-3.92-31.06.38-9.11.9-18.21,1.58-27.3.43-5.84,1.06-11.66,6.03-15.88,4.07-3.46,5.22-8.03,4.93-13.28-.42-7.46-.67-14.95-.63-22.42.03-7.99-.69-15.82-2.91-23.53-.64-2.2-.55-4.66-.51-7,.12-6.93,1.04-13.91.46-20.77-1.21-14.34-3.05-28.63-4.93-42.9-.65-4.91-1.23-10.22-3.52-14.45-4.23-7.8-6.92-16.04-9.3-24.44-2.49-8.79-5.03-17.53-9.9-25.37-5.78-9.28-6.88-19.42-5.65-30.02.63-5.42,1.81-10.89-1.46-15.97-1.18-1.84-2.42-3.67-3.34-5.64-3.32-7.1-7.15-14.14-6.05-22.37.85-6.39,2.25-12.7,3.18-19.08,1.79-12.27,3.42-24.56,5.14-36.83.91-6.49,1.81-12.98,2.85-19.44,1.16-7.29,2.4-14.56,3.73-21.82,1.18-6.43,1.77-13,5.31-18.81,1.93-3.17,3.6-6.53,5.11-9.93,1.96-4.39,4.21-8.77,5.33-13.4,1.92-7.89.05-15.86-1.43-23.6-2.69-14.05-3.68-28.2-4.16-46.22-.28-4.7,1.05-12.99,3.25-21.12Z"/>
  <path class="cls-1" d="M366.95,262.2c.29-25.62-20.48-46.27-45.3-46.06-27.14.24-46.27,20.81-46.54,45.97-.29,27.28,20.12,47.8,46.41,47.77,24.94-.03,46.27-20.71,45.43-47.69Z"/>
  <path class="cls-1" d="M366.95,262.2c.84,26.97-20.49,47.66-45.43,47.69-26.28.03-46.7-20.49-46.41-47.77.27-25.17,19.4-45.73,46.54-45.97,24.82-.22,45.58,20.44,45.3,46.06Z"/>
</svg>